# Made in Blockbench 5.1.4
mtllib airdrop_crate_flying.mtl

o chest_body
v 0.75 0.625 0.5
v 0.75 0.625 -0.5
v 0.75 0 0.5
v 0.75 0 -0.5
v -0.75 0.625 -0.5
v -0.75 0.625 0.5
v -0.75 0 -0.5
v -0.75 0 0.5
vt 0.5869565217391305 0.7282608695652174
vt 0.717391304347826 0.7282608695652174
vt 0.717391304347826 0.6739130434782609
vt 0.5869565217391305 0.6739130434782609
vt 0.5 0.7282608695652174
vt 0.5869565217391305 0.7282608695652174
vt 0.5869565217391305 0.6739130434782609
vt 0.5 0.6739130434782609
vt 0.8043478260869565 0.7282608695652174
vt 0.9347826086956522 0.7282608695652174
vt 0.9347826086956522 0.6739130434782609
vt 0.8043478260869565 0.6739130434782609
vt 0.717391304347826 0.7282608695652174
vt 0.8043478260869565 0.7282608695652174
vt 0.8043478260869565 0.6739130434782609
vt 0.717391304347826 0.6739130434782609
vt 0.717391304347826 0.7282608695652174
vt 0.5869565217391305 0.7282608695652174
vt 0.5869565217391305 0.8152173913043479
vt 0.717391304347826 0.8152173913043479
vt 0.8478260869565217 0.8152173913043479
vt 0.717391304347826 0.8152173913043479
vt 0.717391304347826 0.7282608695652174
vt 0.8478260869565217 0.7282608695652174
vn 0 0 -1
vn 1 0 0
vn 0 0 1
vn -1 0 0
vn 0 1 0
vn 0 -1 0
usemtl m_e7536168-6ed9-57dc-e745-5ad02d3c1782
f 4/4/1 7/3/1 5/2/1 2/1/1
f 3/8/2 4/7/2 2/6/2 1/5/2
f 8/12/3 3/11/3 1/10/3 6/9/3
f 7/16/4 8/15/4 6/14/4 5/13/4
f 6/20/5 1/19/5 2/18/5 5/17/5
f 7/24/6 4/23/6 3/22/6 8/21/6
o chest_lid
v 0.75 0.8125 0.5
v 0.75 0.8125 -0.5
v 0.75 0.625 0.5
v 0.75 0.625 -0.5
v -0.75 0.8125 -0.5
v -0.75 0.8125 0.5
v -0.75 0.625 -0.5
v -0.75 0.625 0.5
vt 0.5869565217391305 0.4836956521739131
vt 0.717391304347826 0.4836956521739131
vt 0.717391304347826 0.46739130434782605
vt 0.5869565217391305 0.46739130434782605
vt 0.5 0.4836956521739131
vt 0.5869565217391305 0.4836956521739131
vt 0.5869565217391305 0.46739130434782605
vt 0.5 0.46739130434782605
vt 0.8043478260869565 0.4836956521739131
vt 0.9347826086956522 0.4836956521739131
vt 0.9347826086956522 0.46739130434782605
vt 0.8043478260869565 0.46739130434782605
vt 0.717391304347826 0.4836956521739131
vt 0.8043478260869565 0.4836956521739131
vt 0.8043478260869565 0.46739130434782605
vt 0.717391304347826 0.46739130434782605
vt 0.717391304347826 0.4836956521739131
vt 0.5869565217391305 0.4836956521739131
vt 0.5869565217391305 0.5706521739130435
vt 0.717391304347826 0.5706521739130435
vt 0.8478260869565217 0.5706521739130435
vt 0.717391304347826 0.5706521739130435
vt 0.717391304347826 0.4836956521739131
vt 0.8478260869565217 0.4836956521739131
vn 0 0 -1
vn 1 0 0
vn 0 0 1
vn -1 0 0
vn 0 1 0
vn 0 -1 0
usemtl m_e7536168-6ed9-57dc-e745-5ad02d3c1782
f 12/28/7 15/27/7 13/26/7 10/25/7
f 11/32/8 12/31/8 10/30/8 9/29/8
f 16/36/9 11/35/9 9/34/9 14/33/9
f 15/40/10 16/39/10 14/38/10 13/37/10
f 14/44/11 9/43/11 10/42/11 13/41/11
f 15/48/12 12/47/12 11/46/12 16/45/12
o front_lock
v 0.125 0.5625 -0.48750000000000004
v 0.125 0.5625 -0.53125
v 0.125 0.3125 -0.48750000000000004
v 0.125 0.3125 -0.53125
v -0.125 0.5625 -0.53125
v -0.125 0.5625 -0.48750000000000004
v -0.125 0.3125 -0.53125
v -0.125 0.3125 -0.48750000000000004
vt 0.25380434782608696 0.4418478260869565
vt 0.27554347826086956 0.4418478260869565
vt 0.27554347826086956 0.4201086956521739
vt 0.25380434782608696 0.4201086956521739
vt 0.25 0.4418478260869565
vt 0.25380434782608696 0.4418478260869565
vt 0.25380434782608696 0.4201086956521739
vt 0.25 0.4201086956521739
vt 0.2793478260869565 0.4418478260869565
vt 0.3010869565217391 0.4418478260869565
vt 0.3010869565217391 0.4201086956521739
vt 0.2793478260869565 0.4201086956521739
vt 0.27554347826086956 0.4418478260869565
vt 0.2793478260869565 0.4418478260869565
vt 0.2793478260869565 0.4201086956521739
vt 0.27554347826086956 0.4201086956521739
vt 0.27554347826086956 0.4418478260869565
vt 0.25380434782608696 0.4418478260869565
vt 0.25380434782608696 0.44565217391304346
vt 0.27554347826086956 0.44565217391304346
vt 0.2972826086956522 0.44565217391304346
vt 0.27554347826086956 0.44565217391304346
vt 0.27554347826086956 0.4418478260869565
vt 0.2972826086956522 0.4418478260869565
vn 0 0 -1
vn 1 0 0
vn 0 0 1
vn -1 0 0
vn 0 1 0
vn 0 -1 0
usemtl m_e7536168-6ed9-57dc-e745-5ad02d3c1782
f 20/52/13 23/51/13 21/50/13 18/49/13
f 19/56/14 20/55/14 18/54/14 17/53/14
f 24/60/15 19/59/15 17/58/15 22/57/15
f 23/64/16 24/63/16 22/62/16 21/61/16
f 22/68/17 17/67/17 18/66/17 21/65/17
f 23/72/18 20/71/18 19/70/18 24/69/18
o metal_band_middle
v 0.76875 0.46875 0.51875
v 0.76875 0.46875 -0.51875
v 0.76875 0.375 0.51875
v 0.76875 0.375 -0.51875
v -0.76875 0.46875 -0.51875
v -0.76875 0.46875 0.51875
v -0.76875 0.375 -0.51875
v -0.76875 0.375 0.51875
vt 0.5902173913043478 0.5836956521739131
vt 0.7239130434782608 0.5836956521739131
vt 0.7239130434782608 0.5755434782608696
vt 0.5902173913043478 0.5755434782608696
vt 0.5 0.5836956521739131
vt 0.5902173913043478 0.5836956521739131
vt 0.5902173913043478 0.5755434782608696
vt 0.5 0.5755434782608696
vt 0.8141304347826087 0.5836956521739131
vt 0.9478260869565218 0.5836956521739131
vt 0.9478260869565218 0.5755434782608696
vt 0.8141304347826087 0.5755434782608696
vt 0.7239130434782608 0.5836956521739131
vt 0.8141304347826087 0.5836956521739131
vt 0.8141304347826087 0.5755434782608696
vt 0.7239130434782608 0.5755434782608696
vt 0.7239130434782608 0.5836956521739131
vt 0.5902173913043478 0.5836956521739131
vt 0.5902173913043478 0.6739130434782609
vt 0.7239130434782608 0.6739130434782609
vt 0.857608695652174 0.6739130434782609
vt 0.7239130434782609 0.6739130434782609
vt 0.7239130434782609 0.5836956521739131
vt 0.857608695652174 0.5836956521739131
vn 0 0 -1
vn 1 0 0
vn 0 0 1
vn -1 0 0
vn 0 1 0
vn 0 -1 0
usemtl m_e7536168-6ed9-57dc-e745-5ad02d3c1782
f 28/76/19 31/75/19 29/74/19 26/73/19
f 27/80/20 28/79/20 26/78/20 25/77/20
f 32/84/21 27/83/21 25/82/21 30/81/21
f 31/88/22 32/87/22 30/86/22 29/85/22
f 30/92/23 25/91/23 26/90/23 29/89/23
f 31/96/24 28/95/24 27/94/24 32/93/24
o rope_front_left
v -0.675 2.3322602780971557 -0.9648670918046441
v -0.675 2.3035590206697742 -1.0341580567429904
v -0.675 0.9464409793302259 -0.3908419432570095
v -0.675 0.9177397219028441 -0.4601329081953559
v -0.75 2.3035590206697742 -1.0341580567429904
v -0.75 2.3322602780971557 -0.9648670918046441
v -0.75 0.9177397219028441 -0.4601329081953559
v -0.75 0.9464409793302259 -0.3908419432570095
vt 0.5282608695652175 0.95
vt 0.5347826086956522 0.95
vt 0.5347826086956522 0.8195652173913044
vt 0.5282608695652175 0.8195652173913044
vt 0.5217391304347826 0.95
vt 0.5282608695652175 0.95
vt 0.5282608695652175 0.8195652173913044
vt 0.5217391304347826 0.8195652173913044
vt 0.5413043478260869 0.95
vt 0.5478260869565217 0.95
vt 0.5478260869565217 0.8195652173913044
vt 0.5413043478260869 0.8195652173913044
vt 0.5347826086956522 0.95
vt 0.5413043478260869 0.95
vt 0.5413043478260869 0.8195652173913044
vt 0.5347826086956522 0.8195652173913044
vt 0.5347826086956522 0.95
vt 0.5282608695652175 0.95
vt 0.5282608695652175 0.9565217391304348
vt 0.5347826086956522 0.9565217391304348
vt 0.5413043478260869 0.9565217391304348
vt 0.5347826086956522 0.9565217391304348
vt 0.5347826086956522 0.95
vt 0.5413043478260869 0.95
vn 0 -0.3826834323650897 -0.9238795325112867
vn 1 0 0
vn 0 0.3826834323650897 0.9238795325112867
vn -1 0 0
vn 0 0.9238795325112867 -0.3826834323650897
vn 0 -0.9238795325112867 0.3826834323650897
usemtl m_e7536168-6ed9-57dc-e745-5ad02d3c1782
f 36/100/25 39/99/25 37/98/25 34/97/25
f 35/104/26 36/103/26 34/102/26 33/101/26
f 40/108/27 35/107/27 33/106/27 38/105/27
f 39/112/28 40/111/28 38/110/28 37/109/28
f 38/116/29 33/115/29 34/114/29 37/113/29
f 39/120/30 36/119/30 35/118/30 40/117/30
o rope_front_right
v 0.6875 2.2697602780971557 -0.9648670918046441
v 0.6875 2.2410590206697742 -1.0341580567429904
v 0.6875 0.8839409793302259 -0.3908419432570095
v 0.6875 0.8552397219028441 -0.4601329081953559
v 0.6125 2.2410590206697742 -1.0341580567429904
v 0.6125 2.2697602780971557 -0.9648670918046441
v 0.6125 0.8552397219028441 -0.4601329081953559
v 0.6125 0.8839409793302259 -0.3908419432570095
vt 0.55 0.95
vt 0.5565217391304348 0.95
vt 0.5565217391304348 0.8195652173913044
vt 0.55 0.8195652173913044
vt 0.5434782608695652 0.95
vt 0.55 0.95
vt 0.55 0.8195652173913044
vt 0.5434782608695652 0.8195652173913044
vt 0.5630434782608695 0.95
vt 0.5695652173913043 0.95
vt 0.5695652173913043 0.8195652173913044
vt 0.5630434782608695 0.8195652173913044
vt 0.5565217391304348 0.95
vt 0.5630434782608695 0.95
vt 0.5630434782608695 0.8195652173913044
vt 0.5565217391304348 0.8195652173913044
vt 0.5565217391304348 0.95
vt 0.55 0.95
vt 0.55 0.9565217391304348
vt 0.5565217391304348 0.9565217391304348
vt 0.5630434782608695 0.9565217391304348
vt 0.5565217391304348 0.9565217391304348
vt 0.5565217391304348 0.95
vt 0.5630434782608695 0.95
vn 0 -0.3826834323650897 -0.9238795325112867
vn 1 0 0
vn 0 0.3826834323650897 0.9238795325112867
vn -1 0 0
vn 0 0.9238795325112867 -0.3826834323650897
vn 0 -0.9238795325112867 0.3826834323650897
usemtl m_e7536168-6ed9-57dc-e745-5ad02d3c1782
f 44/124/31 47/123/31 45/122/31 42/121/31
f 43/128/32 44/127/32 42/126/32 41/125/32
f 48/132/33 43/131/33 41/130/33 46/129/33
f 47/136/34 48/135/34 46/134/34 45/133/34
f 46/140/35 41/139/35 42/138/35 45/137/35
f 47/144/36 44/143/36 43/142/36 48/141/36
o rope_back_left
v -0.6125 2.32901124557976 0.9737937352812633
v -0.6125 2.3515641805425807 0.9022649639751463
v -0.6125 0.8984358194574196 0.5227350360248537
v -0.6125 0.92098875442024 0.4512062647187367
v -0.6875 2.3515641805425807 0.9022649639751463
v -0.6875 2.32901124557976 0.9737937352812633
v -0.6875 0.92098875442024 0.4512062647187367
v -0.6875 0.8984358194574196 0.5227350360248537
vt 0.21304347826086958 0.4391304347826087
vt 0.21956521739130433 0.4391304347826087
vt 0.21956521739130433 0.30869565217391304
vt 0.21304347826086958 0.30869565217391304
vt 0.20652173913043478 0.4391304347826087
vt 0.21304347826086958 0.4391304347826087
vt 0.21304347826086958 0.30869565217391304
vt 0.20652173913043478 0.30869565217391304
vt 0.2260869565217391 0.4391304347826087
vt 0.2326086956521739 0.4391304347826087
vt 0.2326086956521739 0.30869565217391304
vt 0.2260869565217391 0.30869565217391304
vt 0.21956521739130433 0.4391304347826087
vt 0.2260869565217391 0.4391304347826087
vt 0.2260869565217391 0.30869565217391304
vt 0.21956521739130433 0.30869565217391304
vt 0.21956521739130433 0.4391304347826087
vt 0.21304347826086958 0.4391304347826087
vt 0.21304347826086958 0.44565217391304346
vt 0.21956521739130433 0.44565217391304346
vt 0.2260869565217391 0.44565217391304346
vt 0.21956521739130433 0.44565217391304346
vt 0.21956521739130433 0.4391304347826087
vt 0.2260869565217391 0.4391304347826087
vn 0 0.30070579950427306 -0.9537169507482269
vn 1 0 0
vn 0 -0.30070579950427306 0.9537169507482269
vn -1 0 0
vn 0 0.9537169507482269 0.30070579950427306
vn 0 -0.9537169507482269 -0.30070579950427306
usemtl m_e7536168-6ed9-57dc-e745-5ad02d3c1782
f 52/148/37 55/147/37 53/146/37 50/145/37
f 51/152/38 52/151/38 50/150/38 49/149/38
f 56/156/39 51/155/39 49/154/39 54/153/39
f 55/160/40 56/159/40 54/158/40 53/157/40
f 54/164/41 49/163/41 50/162/41 53/161/41
f 55/168/42 52/167/42 51/166/42 56/165/42
o rope_back_right
v 0.75 2.3035590206697742 1.0341580567429904
v 0.75 2.3322602780971557 0.9648670918046441
v 0.75 0.9177397219028441 0.4601329081953559
v 0.75 0.9464409793302259 0.3908419432570095
v 0.675 2.3322602780971557 0.9648670918046441
v 0.675 2.3035590206697742 1.0341580567429904
v 0.675 0.9464409793302259 0.3908419432570095
v 0.675 0.9177397219028441 0.4601329081953559
vt 0.23478260869565218 0.4391304347826087
vt 0.24130434782608695 0.4391304347826087
vt 0.24130434782608695 0.30869565217391304
vt 0.23478260869565218 0.30869565217391304
vt 0.22826086956521738 0.4391304347826087
vt 0.23478260869565218 0.4391304347826087
vt 0.23478260869565218 0.30869565217391304
vt 0.22826086956521738 0.30869565217391304
vt 0.2478260869565217 0.4391304347826087
vt 0.2543478260869565 0.4391304347826087
vt 0.2543478260869565 0.30869565217391304
vt 0.2478260869565217 0.30869565217391304
vt 0.24130434782608695 0.4391304347826087
vt 0.2478260869565217 0.4391304347826087
vt 0.2478260869565217 0.30869565217391304
vt 0.24130434782608695 0.30869565217391304
vt 0.24130434782608695 0.4391304347826087
vt 0.23478260869565218 0.4391304347826087
vt 0.23478260869565218 0.44565217391304346
vt 0.24130434782608695 0.44565217391304346
vt 0.2478260869565217 0.44565217391304346
vt 0.24130434782608695 0.44565217391304346
vt 0.24130434782608695 0.4391304347826087
vt 0.2478260869565217 0.4391304347826087
vn 0 0.3826834323650897 -0.9238795325112867
vn 1 0 0
vn 0 -0.3826834323650897 0.9238795325112867
vn -1 0 0
vn 0 0.9238795325112867 0.3826834323650897
vn 0 -0.9238795325112867 -0.3826834323650897
usemtl m_e7536168-6ed9-57dc-e745-5ad02d3c1782
f 60/172/43 63/171/43 61/170/43 58/169/43
f 59/176/44 60/175/44 58/174/44 57/173/44
f 64/180/45 59/179/45 57/178/45 62/177/45
f 63/184/46 64/183/46 62/182/46 61/181/46
f 62/188/47 57/187/47 58/186/47 61/185/47
f 63/192/48 60/191/48 59/190/48 64/189/48
o canopy_red_left
v -0.5 2.5 1
v -0.5 2.5 -1
v -0.5 2.375 1
v -0.5 2.375 -1
v -1.375 2.5 -1
v -1.375 2.5 1
v -1.375 2.375 -1
v -1.375 2.375 1
vt 0.17391304347826086 0.6413043478260869
vt 0.25 0.6413043478260869
vt 0.25 0.6304347826086957
vt 0.17391304347826086 0.6304347826086957
vt 0 0.6413043478260869
vt 0.17391304347826086 0.6413043478260869
vt 0.17391304347826086 0.6304347826086957
vt 0 0.6304347826086957
vt 0.42391304347826086 0.6413043478260869
vt 0.5 0.6413043478260869
vt 0.5 0.6304347826086957
vt 0.42391304347826086 0.6304347826086957
vt 0.25 0.6413043478260869
vt 0.42391304347826086 0.6413043478260869
vt 0.42391304347826086 0.6304347826086957
vt 0.25 0.6304347826086957
vt 0.25 0.6413043478260869
vt 0.17391304347826086 0.6413043478260869
vt 0.17391304347826086 0.8152173913043479
vt 0.25 0.8152173913043479
vt 0.32608695652173914 0.8152173913043479
vt 0.25 0.8152173913043479
vt 0.25 0.6413043478260869
vt 0.32608695652173914 0.6413043478260869
vn 0 0 -1
vn 1 0 0
vn 0 0 1
vn -1 0 0
vn 0 1 0
vn 0 -1 0
usemtl m_e7536168-6ed9-57dc-e745-5ad02d3c1782
f 68/196/49 71/195/49 69/194/49 66/193/49
f 67/200/50 68/199/50 66/198/50 65/197/50
f 72/204/51 67/203/51 65/202/51 70/201/51
f 71/208/52 72/207/52 70/206/52 69/205/52
f 70/212/53 65/211/53 66/210/53 69/209/53
f 71/216/54 68/215/54 67/214/54 72/213/54
o canopy_white_center
v 0.5 2.625 1
v 0.5 2.625 -1
v 0.5 2.5 1
v 0.5 2.5 -1
v -0.5 2.625 -1
v -0.5 2.625 1
v -0.5 2.5 -1
v -0.5 2.5 1
vt 0.17391304347826086 0.8260869565217391
vt 0.2608695652173913 0.8260869565217391
vt 0.2608695652173913 0.8152173913043479
vt 0.17391304347826086 0.8152173913043479
vt 0 0.8260869565217391
vt 0.17391304347826086 0.8260869565217391
vt 0.17391304347826086 0.8152173913043479
vt 0 0.8152173913043479
vt 0.43478260869565216 0.8260869565217391
vt 0.5217391304347826 0.8260869565217391
vt 0.5217391304347826 0.8152173913043479
vt 0.43478260869565216 0.8152173913043479
vt 0.2608695652173913 0.8260869565217391
vt 0.43478260869565216 0.8260869565217391
vt 0.43478260869565216 0.8152173913043479
vt 0.2608695652173913 0.8152173913043479
vt 0.2608695652173913 0.8260869565217391
vt 0.17391304347826086 0.8260869565217391
vt 0.17391304347826086 1
vt 0.2608695652173913 1
vt 0.34782608695652173 1
vt 0.2608695652173913 1
vt 0.2608695652173913 0.8260869565217391
vt 0.34782608695652173 0.8260869565217391
vn 0 0 -1
vn 1 0 0
vn 0 0 1
vn -1 0 0
vn 0 1 0
vn 0 -1 0
usemtl m_e7536168-6ed9-57dc-e745-5ad02d3c1782
f 76/220/55 79/219/55 77/218/55 74/217/55
f 75/224/56 76/223/56 74/222/56 73/221/56
f 80/228/57 75/227/57 73/226/57 78/225/57
f 79/232/58 80/231/58 78/230/58 77/229/58
f 78/236/59 73/235/59 74/234/59 77/233/59
f 79/240/60 76/239/60 75/238/60 80/237/60
o canopy_red_right
v 1.375 2.5 1
v 1.375 2.5 -1
v 1.375 2.375 1
v 1.375 2.375 -1
v 0.5 2.5 -1
v 0.5 2.5 1
v 0.5 2.375 -1
v 0.5 2.375 1
vt 0.17391304347826086 0.4565217391304348
vt 0.25 0.4565217391304348
vt 0.25 0.44565217391304346
vt 0.17391304347826086 0.44565217391304346
vt 0 0.4565217391304348
vt 0.17391304347826086 0.4565217391304348
vt 0.17391304347826086 0.44565217391304346
vt 0 0.44565217391304346
vt 0.42391304347826086 0.4565217391304348
vt 0.5 0.4565217391304348
vt 0.5 0.44565217391304346
vt 0.42391304347826086 0.44565217391304346
vt 0.25 0.4565217391304348
vt 0.42391304347826086 0.4565217391304348
vt 0.42391304347826086 0.44565217391304346
vt 0.25 0.44565217391304346
vt 0.25 0.4565217391304348
vt 0.17391304347826086 0.4565217391304348
vt 0.17391304347826086 0.6304347826086957
vt 0.25 0.6304347826086957
vt 0.32608695652173914 0.6304347826086957
vt 0.25 0.6304347826086957
vt 0.25 0.4565217391304348
vt 0.32608695652173914 0.4565217391304348
vn 0 0 -1
vn 1 0 0
vn 0 0 1
vn -1 0 0
vn 0 1 0
vn 0 -1 0
usemtl m_e7536168-6ed9-57dc-e745-5ad02d3c1782
f 84/244/61 87/243/61 85/242/61 82/241/61
f 83/248/62 84/247/62 82/246/62 81/245/62
f 88/252/63 83/251/63 81/250/63 86/249/63
f 87/256/64 88/255/64 86/254/64 85/253/64
f 86/260/65 81/259/65 82/258/65 85/257/65
f 87/264/66 84/263/66 83/262/66 88/261/66
o canopy_front_lip
v 1.25 2.375 -1
v 1.25 2.375 -1.125
v 1.25 2.25 -1
v 1.25 2.25 -1.125
v -1.25 2.375 -1.125
v -1.25 2.375 -1
v -1.25 2.25 -1.125
v -1.25 2.25 -1
vt 0.532608695652174 0.9891304347826086
vt 0.75 0.9891304347826086
vt 0.75 0.9782608695652174
vt 0.532608695652174 0.9782608695652174
vt 0.5217391304347826 0.9891304347826086
vt 0.532608695652174 0.9891304347826086
vt 0.532608695652174 0.9782608695652174
vt 0.5217391304347826 0.9782608695652174
vt 0.7608695652173914 0.9891304347826086
vt 0.9782608695652174 0.9891304347826086
vt 0.9782608695652174 0.9782608695652174
vt 0.7608695652173914 0.9782608695652174
vt 0.75 0.9891304347826086
vt 0.7608695652173914 0.9891304347826086
vt 0.7608695652173914 0.9782608695652174
vt 0.75 0.9782608695652174
vt 0.75 0.9891304347826086
vt 0.532608695652174 0.9891304347826086
vt 0.532608695652174 1
vt 0.75 1
vt 0.967391304347826 1
vt 0.75 1
vt 0.75 0.9891304347826086
vt 0.967391304347826 0.9891304347826086
vn 0 0 -1
vn 1 0 0
vn 0 0 1
vn -1 0 0
vn 0 1 0
vn 0 -1 0
usemtl m_e7536168-6ed9-57dc-e745-5ad02d3c1782
f 92/268/67 95/267/67 93/266/67 90/265/67
f 91/272/68 92/271/68 90/270/68 89/269/68
f 96/276/69 91/275/69 89/274/69 94/273/69
f 95/280/70 96/279/70 94/278/70 93/277/70
f 94/284/71 89/283/71 90/282/71 93/281/71
f 95/288/72 92/287/72 91/286/72 96/285/72
o canopy_back_lip
v 1.25 2.375 1.125
v 1.25 2.375 1
v 1.25 2.25 1.125
v 1.25 2.25 1
v -1.25 2.375 1
v -1.25 2.375 1.125
v -1.25 2.25 1
v -1.25 2.25 1.125
vt 0.532608695652174 0.967391304347826
vt 0.75 0.967391304347826
vt 0.75 0.9565217391304348
vt 0.532608695652174 0.9565217391304348
vt 0.5217391304347826 0.967391304347826
vt 0.532608695652174 0.967391304347826
vt 0.532608695652174 0.9565217391304348
vt 0.5217391304347826 0.9565217391304348
vt 0.7608695652173914 0.967391304347826
vt 0.9782608695652174 0.967391304347826
vt 0.9782608695652174 0.9565217391304348
vt 0.7608695652173914 0.9565217391304348
vt 0.75 0.967391304347826
vt 0.7608695652173914 0.967391304347826
vt 0.7608695652173914 0.9565217391304348
vt 0.75 0.9565217391304348
vt 0.75 0.967391304347826
vt 0.532608695652174 0.967391304347826
vt 0.532608695652174 0.9782608695652174
vt 0.75 0.9782608695652174
vt 0.967391304347826 0.9782608695652174
vt 0.75 0.9782608695652174
vt 0.75 0.967391304347826
vt 0.967391304347826 0.967391304347826
vn 0 0 -1
vn 1 0 0
vn 0 0 1
vn -1 0 0
vn 0 1 0
vn 0 -1 0
usemtl m_e7536168-6ed9-57dc-e745-5ad02d3c1782
f 100/292/73 103/291/73 101/290/73 98/289/73
f 99/296/74 100/295/74 98/294/74 97/293/74
f 104/300/75 99/299/75 97/298/75 102/297/75
f 103/304/76 104/303/76 102/302/76 101/301/76
f 102/308/77 97/307/77 98/306/77 101/305/77
f 103/312/78 100/311/78 99/310/78 104/309/78